<?xml version="1.0" encoding="UTF-8"?>
<svg width="19px" height="18px" viewBox="0 0 19 18" version="1.1" xmlns="http://www.w3.org/2000/svg" xmlns:xlink="http://www.w3.org/1999/xlink">
    <title>Group 5</title>
    <g id="Symbols" stroke="none" stroke-width="1" fill="none" fill-rule="evenodd">
        <g id="header-arrow---Desktop" transform="translate(-1517.000000, -30.000000)">
            <g id="ICONS-Copy" transform="translate(1473.000000, 30.000000)">
                <g id="Group-5" transform="translate(45.000000, 1.000000)">
                    <path d="M16.2864749,15.2648221 C16.2747793,15.1032906 16.2712398,14.9561574 16.2520958,14.811198 C16.212977,14.5150412 16.1793058,14.2170885 16.1192271,13.9250904 C15.4693488,10.7649393 13.1189533,8.28654747 10.1824825,7.61540563 C10.0122799,7.57652717 9.88855223,7.48411993 9.86060578,7.30066021 C9.83250543,7.11612928 9.92859446,6.99709943 10.0767599,6.90289635 C11.3411832,6.09917705 11.9155013,4.57248847 11.5090158,3.10411758 C11.0781849,1.54790783 9.64894522,0.567313582 8.08788324,0.756916981 C6.61361531,0.93599736 5.4008068,2.32295662 5.36762808,3.90503284 C5.3406973,5.18855774 5.84927357,6.1999649 6.91573251,6.90188815 C6.98667589,6.94858012 7.06014306,7.01007992 7.10052384,7.08317396 C7.2271139,7.31247497 7.08750473,7.55034564 6.79222025,7.61997401 C5.94025344,7.82082506 5.14190196,8.15620695 4.41197006,8.64763829 C2.46978366,9.95523381 1.29387801,11.7927926 0.844364797,14.1200814 C0.772374971,14.4928294 0.745936638,14.8748087 0.696876448,15.2648221 L16.2864749,15.2648221 Z M5.91347655,7.06757846 C5.73665673,6.84593341 5.52194915,6.61212703 5.34620657,6.35084737 C3.81407593,4.07314911 4.91891509,0.892203953 7.49734506,0.142486026 C9.49499349,-0.438390987 11.6361599,0.810760818 12.1873637,2.90748833 C12.5967116,4.46442272 12.2304838,5.83191125 11.1295534,6.98931744 C11.1081011,7.01187577 11.0851099,7.03295331 11.0644271,7.05620478 C11.0584254,7.06291557 11.0579329,7.07479335 11.049746,7.10065981 C11.1581462,7.13960129 11.2681777,7.17554969 11.3756238,7.2183034 C13.7233416,8.15255225 15.3626414,9.83210818 16.3389822,12.1950303 C16.7808933,13.2646291 16.9941543,14.3883239 16.9999858,15.5515272 C17.001541,15.8674698 16.8754434,16 16.5631387,16 C11.1876316,16 5.8120937,16 0.436586598,16 C0.123481638,16 -0.0100334824,15.8679424 0.000584939985,15.5521258 C0.113755778,12.1924468 1.54358022,9.60365782 4.35056788,7.84309984 C4.84440147,7.53336388 5.3964671,7.3209186 5.91347655,7.06757846 L5.91347655,7.06757846 Z" id="Fill-1" fill="#000000"></path>
                    <path d="M16.2864749,15.2648221 C16.2747793,15.1032906 16.2712398,14.9561574 16.2520958,14.811198 C16.212977,14.5150412 16.1793058,14.2170885 16.1192271,13.9250904 C15.4693488,10.7649393 13.1189533,8.28654747 10.1824825,7.61540563 C10.0122799,7.57652717 9.88855223,7.48411993 9.86060578,7.30066021 C9.83250543,7.11612928 9.92859446,6.99709943 10.0767599,6.90289635 C11.3411832,6.09917705 11.9155013,4.57248847 11.5090158,3.10411758 C11.0781849,1.54790783 9.64894522,0.567313582 8.08788324,0.756916981 C6.61361531,0.93599736 5.4008068,2.32295662 5.36762808,3.90503284 C5.3406973,5.18855774 5.84927357,6.1999649 6.91573251,6.90188815 C6.98667589,6.94858012 7.06014306,7.01007992 7.10052384,7.08317396 C7.2271139,7.31247497 7.08750473,7.55034564 6.79222025,7.61997401 C5.94025344,7.82082506 5.14190196,8.15620695 4.41197006,8.64763829 C2.46978366,9.95523381 1.29387801,11.7927926 0.844364797,14.1200814 C0.772374971,14.4928294 0.745936638,14.8748087 0.696876448,15.2648221 L16.2864749,15.2648221 Z M5.91347655,7.06757846 C5.73665673,6.84593341 5.52194915,6.61212703 5.34620657,6.35084737 C3.81407593,4.07314911 4.91891509,0.892203953 7.49734506,0.142486026 C9.49499349,-0.438390987 11.6361599,0.810760818 12.1873637,2.90748833 C12.5967116,4.46442272 12.2304838,5.83191125 11.1295534,6.98931744 C11.1081011,7.01187577 11.0851099,7.03295331 11.0644271,7.05620478 C11.0584254,7.06291557 11.0579329,7.07479335 11.049746,7.10065981 C11.1581462,7.13960129 11.2681777,7.17554969 11.3756238,7.2183034 C13.7233416,8.15255225 15.3626414,9.83210818 16.3389822,12.1950303 C16.7808933,13.2646291 16.9941543,14.3883239 16.9999858,15.5515272 C17.001541,15.8674698 16.8754434,16 16.5631387,16 C11.1876316,16 5.8120937,16 0.436586598,16 C0.123481638,16 -0.0100334824,15.8679424 0.000584939985,15.5521258 C0.113755778,12.1924468 1.54358022,9.60365782 4.35056788,7.84309984 C4.84440147,7.53336388 5.3964671,7.3209186 5.91347655,7.06757846 Z" id="Stroke-3" stroke="#FFFFFF" stroke-width="0.2"></path>
                </g>
            </g>
        </g>
    </g>
</svg>