<?xml version="1.0" encoding="UTF-8"?>
<svg width="19px" height="18px" viewBox="0 0 19 18" version="1.1" xmlns="http://www.w3.org/2000/svg" xmlns:xlink="http://www.w3.org/1999/xlink">
    <title>Group 5</title>
    <g id="Symbols" stroke="none" stroke-width="1" fill="none" fill-rule="evenodd">
        <g id="header-white---Desktop" transform="translate(-1519.000000, -82.000000)">
            <g id="ICONS-Copy-2" transform="translate(1475.000000, 82.000000)">
                <g id="Group-5" transform="translate(45.000000, 1.000000)">
                    <path d="M16.2864749,15.2648221 C16.2747793,15.1032906 16.2712398,14.9561574 16.2520958,14.811198 C16.212977,14.5150412 16.1793058,14.2170885 16.1192271,13.9250904 C15.4693488,10.7649393 13.1189533,8.28654747 10.1824825,7.61540563 C10.0122799,7.57652717 9.88855223,7.48411993 9.86060578,7.30066021 C9.83250543,7.11612928 9.92859446,6.99709943 10.0767599,6.90289635 C11.3411832,6.09917705 11.9155013,4.57248847 11.5090158,3.10411758 C11.0781849,1.54790783 9.64894522,0.567313582 8.08788324,0.756916981 C6.61361531,0.93599736 5.4008068,2.32295662 5.36762808,3.90503284 C5.3406973,5.18855774 5.84927357,6.1999649 6.91573251,6.90188815 C6.98667589,6.94858012 7.06014306,7.01007992 7.10052384,7.08317396 C7.2271139,7.31247497 7.08750473,7.55034564 6.79222025,7.61997401 C5.94025344,7.82082506 5.14190196,8.15620695 4.41197006,8.64763829 C2.46978366,9.95523381 1.29387801,11.7927926 0.844364797,14.1200814 C0.772374971,14.4928294 0.745936638,14.8748087 0.696876448,15.2648221 L16.2864749,15.2648221 Z M5.91347655,7.06757846 C5.73665673,6.84593341 5.52194915,6.61212703 5.34620657,6.35084737 C3.81407593,4.07314911 4.91891509,0.892203953 7.49734506,0.142486026 C9.49499349,-0.438390987 11.6361599,0.810760818 12.1873637,2.90748833 C12.5967116,4.46442272 12.2304838,5.83191125 11.1295534,6.98931744 C11.1081011,7.01187577 11.0851099,7.03295331 11.0644271,7.05620478 C11.0584254,7.06291557 11.0579329,7.07479335 11.049746,7.10065981 C11.1581462,7.13960129 11.2681777,7.17554969 11.3756238,7.2183034 C13.7233416,8.15255225 15.3626414,9.83210818 16.3389822,12.1950303 C16.7808933,13.2646291 16.9941543,14.3883239 16.9999858,15.5515272 C17.001541,15.8674698 16.8754434,16 16.5631387,16 C11.1876316,16 5.8120937,16 0.436586598,16 C0.123481638,16 -0.0100334824,15.8679424 0.000584939985,15.5521258 C0.113755778,12.1924468 1.54358022,9.60365782 4.35056788,7.84309984 C4.84440147,7.53336388 5.3964671,7.3209186 5.91347655,7.06757846 L5.91347655,7.06757846 Z" id="Fill-1" fill="#FEFEFE"></path>
                    <path d="M10.4149418,0.48062557 C11.2774241,0.989102326 11.9571237,1.83501931 12.2357203,2.89477447 C12.6437767,4.4467968 12.290037,5.81275814 11.2142586,6.97270066 C13.7840014,8.14067672 15.4120647,9.82078946 16.3851935,12.1759379 C16.7857115,13.1453493 16.9995193,14.1589406 17.042126,15.2059952 L17.0501088,15.6001883 L0.390836376,16.0512571 C0.0503158843,12.1958462 1.48946914,9.57857568 4.32400074,7.800742 C4.6642897,7.58731032 5.03200938,7.41968879 5.39711208,7.2534214 C5.52611729,6.8115789 5.46020051,6.62323494 5.36812573,6.47443991 L5.30471929,6.37875446 C4.52966114,5.22653639 4.42122883,3.84591464 4.8327198,2.65831809 C5.24469186,1.46933309 6.17760929,0.474148643 7.48338428,0.0944746048 C8.49764142,-0.200451494 9.5484737,-0.030201025 10.4149418,0.48062557 Z M10.193996,1.31706437 C9.59744545,0.907777734 8.861879,0.713276488 8.09391183,0.806552211 C7.36695466,0.894856218 6.70498307,1.28226387 6.2211954,1.84214505 C5.7392523,2.39989151 5.43391259,3.12905512 5.41761709,3.90608119 C5.39088416,5.18017659 5.89822767,6.1833007 6.80369324,7.66863992 C5.95763105,7.86809896 5.16477529,8.20108324 4.439894,8.68911423 C2.50908129,9.98905231 1.34032337,11.8159807 0.893457445,14.1295635 C0.846087146,14.3748369 0.818592412,14.624135 0.753008942,15.2125895 L0.753008942,15.2125895 L16.1755552,14.6096712 L16.1291258,14.2711117 L16.1291258,14.2711117 L16.0702529,13.9351669 C15.4234974,10.7902002 13.0830667,8.32515412 10.0499379,6.86069947 C10.6725306,6.46495397 11.1252957,5.89128647 11.3724408,5.23578231 C11.6198722,4.5795191 11.6612049,3.84128967 11.4608281,3.11745726 C11.2487216,2.3513046 10.7910247,1.72667902 10.193996,1.31706437 Z" id="Stroke-3" stroke="#FEFEFE" stroke-width="0.1"></path>
                </g>
            </g>
        </g>
    </g>
</svg>