<?xml version="1.0" encoding="UTF-8"?>
<svg width="39px" height="19px" viewBox="0 0 39 19" version="1.1" xmlns="http://www.w3.org/2000/svg" xmlns:xlink="http://www.w3.org/1999/xlink">
    <title>Shape</title>
    <g id="Symbols" stroke="none" stroke-width="1" fill="none" fill-rule="evenodd" opacity="1">
        <g id="Footer" transform="translate(-1363.000000, -342.000000)" fill="#465A54" fill-rule="nonzero">
            <g id="Group-3" transform="translate(1086.000000, 339.000000)">
                <path d="M286.867608,11.109499 C286.887865,13.2265511 288.783793,13.930908 288.804774,13.9399568 C288.788857,13.989906 288.50199,14.9440092 287.806346,15.9299641 C287.204396,16.781997 286.580017,17.6311344 285.596421,17.64887 C284.629828,17.6662436 284.319447,17.093637 283.213942,17.093637 C282.10916,17.093637 281.763689,17.6311344 280.848826,17.6662436 C279.899596,17.700991 279.17646,16.7443541 278.569806,15.8952168 C277.330092,14.1578514 276.382671,10.9871595 277.654943,8.8465805 C278.286919,7.78353004 279.415938,7.11030094 280.641905,7.09328924 C281.574133,7.07591559 282.454268,7.70100518 283.024385,7.70100518 C283.593778,7.70100518 284.66347,6.94923269 285.788148,7.05962778 C286.258422,7.07881119 287.57953,7.24386091 288.427831,8.44734841 C288.359099,8.48861084 286.850967,9.33955794 286.867608,11.109499 L286.867608,11.109499 Z M285.050904,5.91043295 C285.55482,5.31900481 285.894502,4.49592794 285.801895,3.67647059 C285.075141,3.70470278 284.196452,4.14555925 283.675533,4.73662544 C283.208154,5.26000677 282.799377,6.09756169 282.909711,6.90073124 C283.720029,6.96153903 284.546987,6.5018611 285.051265,5.910071 L285.050904,5.91043295 Z M292.347021,4.89805565 C292.757532,4.82998357 293.169842,4.77325631 293.58348,4.72793862 C294.077546,4.67535576 294.574145,4.65022191 295.070992,4.65265278 C295.843688,4.65265278 296.509668,4.74386447 297.069656,4.92628783 C297.630367,5.1087112 298.09015,5.37003992 298.450452,5.70991203 C298.762432,6.01557493 299.008964,6.38157758 299.175036,6.78563078 C299.348675,7.20078872 299.434772,7.67928812 299.434772,8.22040505 C299.434772,8.87481269 299.31648,9.44741938 299.078087,9.93822511 C298.849002,10.417847 298.51581,10.8402588 298.102811,11.1746502 C297.690417,11.5076452 297.201333,11.7563056 296.634833,11.9202695 C296.067973,12.0835094 295.450105,12.1653104 294.780146,12.1653104 C294.175301,12.1653104 293.666682,12.1215143 293.255012,12.0335602 L293.255012,17.4700661 L292.347021,17.4700661 L292.347021,4.89805565 Z M293.255012,11.2408872 C293.47387,11.3035048 293.718412,11.3476628 293.989001,11.3726374 C294.259589,11.397974 294.548988,11.4102803 294.857922,11.4102803 C296.016604,11.4102803 296.914827,11.146056 297.552229,10.6176074 C298.189269,10.0891587 298.508332,9.31494526 298.508332,8.29569089 C298.508332,7.80488516 298.424768,7.37669697 298.257278,7.01185024 C298.09833,6.6576021 297.852589,6.34922667 297.542824,6.11529729 C297.23389,5.88220076 296.867076,5.70629252 296.442021,5.58648669 C296.016604,5.46704282 295.546692,5.40732088 295.0312,5.40732088 C294.619529,5.40732088 294.265377,5.42288478 293.969104,5.45437453 C293.673194,5.48586428 293.434801,5.52061159 293.25465,5.5582545 L293.25465,11.2408872 L293.255012,11.2408872 Z M306.656007,15.3186286 C306.656007,15.6834754 306.662157,16.0486841 306.67518,16.4135308 C306.687841,16.7783775 306.726187,17.130194 306.79094,17.4704281 L305.941191,17.4704281 L305.806259,16.1865874 L305.766828,16.1865874 C305.651068,16.3632196 305.503113,16.5391278 305.322962,16.7150361 C305.142811,16.8909443 304.93372,17.0516506 304.695689,17.1964311 C304.457296,17.3412115 304.18707,17.4577598 303.884286,17.5457139 C303.560565,17.6364532 303.225645,17.680931 302.889476,17.6778261 C302.439098,17.6778261 302.042983,17.6054359 301.70113,17.4606554 C301.36,17.315875 301.080007,17.1272984 300.861148,16.8945638 C300.643851,16.6637011 300.476382,16.3905496 300.36917,16.0921182 C300.261839,15.802079 300.20625,15.4954337 300.204935,15.1861545 C300.204935,14.1165889 300.66508,13.2924262 301.585732,12.7133044 C302.506383,12.1341826 303.894053,11.85729 305.748741,11.8826266 L305.748741,11.6372237 C305.748741,11.3976121 305.72595,11.1236151 305.681093,10.8155946 C305.635869,10.5070688 305.534208,10.209523 305.381203,9.93786316 C305.226737,9.66133249 304.995217,9.42859792 304.686283,9.24002138 C304.37735,9.05108289 303.958444,8.95661365 303.431014,8.95661365 C303.031281,8.95661365 302.635889,9.01633558 302.24303,9.13577946 C301.85017,9.25522333 301.493124,9.42172085 301.171167,9.63599592 L300.881406,8.97507316 C301.293077,8.69854249 301.718494,8.50055523 302.155848,8.38111135 C302.602944,8.2604463 303.064168,8.20018957 303.527239,8.20190825 C304.171153,8.20190825 304.695689,8.30872113 305.101571,8.52263424 C305.507092,8.73654736 305.825793,9.01343997 306.057674,9.35295013 C306.291502,9.69750748 306.452516,10.086227 306.530842,10.4952679 C306.613676,10.9085657 306.65584,11.3289894 306.656731,11.7505144 L306.656731,15.3186286 L306.656007,15.3186286 Z M305.748017,12.6191971 C305.235353,12.6071967 304.722432,12.6260522 304.21203,12.6756615 C303.678089,12.7256107 303.185386,12.8363678 302.735009,13.0057609 C302.283908,13.175878 301.910944,13.4241764 301.615033,13.7513802 C301.319123,14.0785841 301.170444,14.5129254 301.170444,15.0544043 C301.170444,15.6954198 301.357106,16.167766 301.731155,16.4696332 C302.103757,16.7715005 302.5223,16.922796 302.986063,16.922796 C303.359388,16.922796 303.694367,16.8728468 303.990278,16.7715005 C304.286551,16.670878 304.543393,16.5355083 304.762612,16.3661152 C304.981832,16.1967221 305.164877,16.0041641 305.313195,15.7906129 C305.461512,15.5759759 305.574016,15.3562715 305.651792,15.1293282 C305.716183,14.8774102 305.748741,14.6949868 305.748741,14.5813342 L305.748741,12.6191971 L305.748017,12.6191971 Z M308.431472,8.40898159 L310.787182,14.2986504 C310.918531,14.6319793 311.041085,14.9687105 311.154719,15.308494 C311.270479,15.6545193 311.373577,15.9726743 311.463653,16.2618733 L311.50236,16.2618733 C311.592797,15.9853426 311.695534,15.6737027 311.811294,15.3273155 C311.927415,14.9816521 312.056198,14.6258542 312.197642,14.2602835 L314.39997,8.40861964 L315.365117,8.40861964 L312.680939,15.0540424 C312.435169,15.6960653 312.180716,16.3347264 311.917648,16.9698497 C311.700882,17.4969388 311.459202,18.0134224 311.193426,18.5175527 C310.971952,18.9392032 310.723391,19.3460448 310.449308,19.7355182 C310.208099,20.0769366 309.926006,20.3875105 309.609327,20.6603034 C309.249387,20.974477 308.917301,21.2046779 308.614517,21.3494583 C308.312095,21.4942388 308.109515,21.5854505 308.006417,21.6230934 L307.696759,20.8868848 C307.961641,20.7693223 308.219732,20.6370028 308.469817,20.4905483 C308.77226,20.3121727 309.051171,20.0965801 309.300032,19.848809 C309.532274,19.6222275 309.786584,19.3239798 310.063322,18.9518941 C310.34006,18.5808941 310.587858,18.1309889 310.807078,17.6021783 C310.884131,17.4009335 310.922838,17.2684594 310.922838,17.2054799 C310.922838,17.1178877 310.884493,16.9854136 310.807078,16.8091434 L307.46524,8.40825769 L308.431472,8.40825769 L308.431472,8.40898159 Z" id="Shape"></path>
            </g>
        </g>
    </g>
</svg>